<svg xmlns="http://www.w3.org/2000/svg" viewBox="0 0 64 64">
<rect width="64" height="64" rx="10" fill="#16181d"/>
<!-- scalloped canopy -->
<path d="M14 22 L14 18 Q17 14 20 18 Q23 14 26 18 Q29 14 32 18 Q35 14 38 18 Q41 14 44 18 Q47 14 50 18 L50 22 Z" fill="#9aa0ab"/>
<rect x="13" y="21" width="38" height="3" fill="#b08d4f"/>
<!-- post/window frame -->
<path d="M22 24 L22 46 L42 46 L42 24" fill="none" stroke="#9aa0ab" stroke-width="2"/>
<!-- arched red window -->
<path d="M27 44 L27 31 Q27 25 32 25 Q37 25 37 31 L37 44 Z" fill="#c8102e"/>
<!-- base -->
<rect x="20" y="46" width="24" height="10" fill="none" stroke="#9aa0ab" stroke-width="2"/>
<line x1="24" y1="49" x2="29" y2="49" stroke="#9aa0ab" stroke-width="1.2"/>
<line x1="33" y1="49" x2="40" y2="49" stroke="#9aa0ab" stroke-width="1.2"/>
<line x1="22" y1="53" x2="27" y2="53" stroke="#9aa0ab" stroke-width="1.2"/>
<line x1="31" y1="53" x2="38" y2="53" stroke="#9aa0ab" stroke-width="1.2"/>
</svg>
